HIERARCHY
ROOT Hips
{
 OFFSET 0.000000 0.000000 0.000000
 CHANNELS 6 Xposition Yposition Zposition Yrotation Xrotation Zrotation
 JOINT Chest
 {
  OFFSET 0.000000 16.280000 -0.014500
  CHANNELS 3 Yrotation Xrotation Zrotation
  JOINT Chest2
  {
   OFFSET 0.000000 10.601900 0.029500
   CHANNELS 3 Yrotation Xrotation Zrotation
   JOINT Chest3
   {
    OFFSET 0.000000 10.554800 0.000000
    CHANNELS 3 Yrotation Xrotation Zrotation
    JOINT Chest4
    {
     OFFSET 0.000000 10.544000 0.000000
     CHANNELS 3 Yrotation Xrotation Zrotation
     JOINT Neck
     {
      OFFSET 0.000000 16.186500 0.000000
      CHANNELS 3 Yrotation Xrotation Zrotation
      JOINT Head
      {
       OFFSET 0.000000 9.876700 0.062400
       CHANNELS 3 Yrotation Xrotation Zrotation
       End Site
       {
        OFFSET 0.000000 18.635100 0.032900
       }
      }
     }
     JOINT RightCollar
     {
      OFFSET -3.550000 10.761000 0.000000
      CHANNELS 3 Yrotation Xrotation Zrotation
      JOINT RightShoulder
      {
       OFFSET -16.915100 0.000000 0.000000
       CHANNELS 3 Yrotation Xrotation Zrotation
       JOINT RightElbow
       {
        OFFSET 0.000000 -31.241900 0.000000
        CHANNELS 3 Yrotation Xrotation Zrotation
        JOINT RightWrist
        {
         OFFSET 0.000000 -25.690800 0.013700
         CHANNELS 3 Yrotation Xrotation Zrotation
         End Site
         {
          OFFSET 0.000000 -19.336200 0.000000
         }
        }
       }
      }
     }
     JOINT LeftCollar
     {
      OFFSET 3.550000 10.761000 0.000000
      CHANNELS 3 Yrotation Xrotation Zrotation
      JOINT LeftShoulder
      {
       OFFSET 16.915100 0.000000 0.000000
       CHANNELS 3 Yrotation Xrotation Zrotation
       JOINT LeftElbow
       {
        OFFSET 0.000000 -31.241900 0.000000
        CHANNELS 3 Yrotation Xrotation Zrotation
        JOINT LeftWrist
        {
         OFFSET 0.000000 -25.690800 0.013700
         CHANNELS 3 Yrotation Xrotation Zrotation
         End Site
         {
          OFFSET 0.000000 -19.336200 0.000000
         }
        }
       }
      }
     }
    }
   }
  }
 }
 JOINT RightHip
 {
  OFFSET -13.350800 0.071600 0.007200
  CHANNELS 3 Yrotation Xrotation Zrotation
  JOINT RightKnee
  {
   OFFSET 0.000000 -49.946400 0.002700
   CHANNELS 3 Yrotation Xrotation Zrotation
   JOINT RightAnkle
   {
    OFFSET 0.000000 -42.233900 0.021900
    CHANNELS 3 Yrotation Xrotation Zrotation
    JOINT RightToe
    {
     OFFSET 0.000000 -11.862800 19.724700
     CHANNELS 3 Yrotation Xrotation Zrotation
     End Site
     {
      OFFSET 0.000000 -1.715400 7.529500
     }
    }
   }
  }
 }
 JOINT LeftHip
 {
  OFFSET 13.350800 0.071600 0.007200
  CHANNELS 3 Yrotation Xrotation Zrotation
  JOINT LeftKnee
  {
   OFFSET 0.000000 -49.946400 0.002700
   CHANNELS 3 Yrotation Xrotation Zrotation
   JOINT LeftAnkle
   {
    OFFSET 0.000000 -42.233900 0.021900
    CHANNELS 3 Yrotation Xrotation Zrotation
    JOINT LeftToe
    {
     OFFSET 0.000000 -11.862800 19.724700
     CHANNELS 3 Yrotation Xrotation Zrotation
     End Site
     {
      OFFSET 0.000000 -1.715400 7.529500
     }
    }
   }
  }
 }
}
MOTION
Frames: 9
Frame Time: 0.008333
54.677996 131.382085 38.361732 -177.008144 -32.175743 -4.784296 0.580299 7.913354 1.029157 0.026546 0.376535 0.049227 0.046629 0.657884 0.086095 0.588052 7.441185 1.011552 -3.417367 22.579937 -2.369511 -3.144566 -1.475746 -1.774438 -1.831802 -0.013479 -9.211120 26.082144 -20.948811 -18.167193 -78.644032 -47.355448 135.716223 -21.279685 9.022946 9.239611 1.711837 3.006843 12.006570 5.640436 -61.160525 26.695997 -84.723511 -64.991852 117.751602 -0.226405 -9.641992 45.756903 5.241299 -53.353012 -4.752730 -168.679246 66.348777 -158.710661 -1.393784 -1.214384 0.508128 -0.093974 0.023601 -0.056528 -15.850647 -44.042791 9.872796 157.455064 68.759479 151.189503 -0.900191 -18.761982 -4.477897 -0.011340 -0.038795 -0.006817
54.648487 131.380843 38.348609 -176.843392 -32.122764 -4.801440 0.611360 7.856728 1.038496 0.027291 0.372460 0.049896 0.048015 0.650981 0.087214 0.607119 7.400914 1.030299 -3.463501 22.680002 -2.378619 -3.194076 -1.355118 -1.774925 -1.767726 0.228709 -9.193448 26.292985 -20.944019 -18.001918 -77.479848 -46.623436 134.821691 -20.241916 8.074617 9.253079 1.589274 3.187311 11.965886 3.128046 -60.499513 28.057209 -84.067042 -66.890644 115.306735 0.972170 -9.033782 43.339279 5.263930 -53.243461 -4.747410 -168.347469 66.411956 -158.413111 -1.434030 -1.403298 0.474865 -0.096381 0.003643 -0.057966 -15.743944 -44.079816 9.682702 157.520714 68.795778 151.266223 -0.838461 -18.919713 -4.370089 -0.030926 -0.043215 -0.018591
54.620375 131.377895 38.336026 -176.681898 -32.055847 -4.815360 0.594523 7.682628 1.014832 0.025450 0.357940 0.048404 0.044823 0.626100 0.084649 0.579536 7.265145 1.018693 -3.445849 22.883080 -2.362705 -3.181359 -1.114459 -1.763788 -1.634105 0.654030 -9.134306 26.407145 -20.883507 -17.788653 -76.985187 -46.244641 134.271265 -19.252317 7.264845 9.572290 1.581127 3.516082 11.950960 0.960769 -59.769233 29.108044 -83.006639 -68.552961 112.322933 2.038176 -8.260910 40.660881 5.291618 -53.125483 -4.749434 -168.029563 66.483296 -158.123274 -1.465513 -1.685679 0.448666 -0.099344 -0.025741 -0.059734 -15.633407 -44.131866 9.481578 157.548746 68.828297 151.337137 -0.802806 -19.077864 -4.290360 -0.029706 -0.051120 -0.017856
54.593122 131.373358 38.323800 -176.524627 -31.977142 -4.823599 0.573731 7.560310 0.981776 0.023428 0.348627 0.046841 0.041206 0.610123 0.082005 0.543146 7.178880 0.998741 -3.412258 23.031296 -2.324399 -3.155679 -0.939592 -1.731433 -1.508588 0.920243 -9.059945 26.440907 -20.760821 -17.547269 -76.674275 -46.067833 133.874319 -18.628202 6.854482 10.214137 1.606508 3.694040 11.924543 -0.829884 -59.059234 29.820237 -81.484223 -69.950931 108.717002 2.891353 -7.423878 37.839847 5.326114 -53.001428 -4.760868 -167.718676 66.563467 -157.835278 -1.490746 -2.032064 0.428922 -0.097088 -0.061849 -0.058359 -15.517734 -44.193097 9.272647 157.552057 68.854430 151.389992 -0.780157 -19.248520 -4.213124 -0.025612 -0.057358 -0.015393
54.568429 131.367194 38.312019 -176.370854 -31.885190 -4.833170 0.560583 7.526642 0.972911 0.021705 0.347563 0.046794 0.038178 0.608313 0.081958 0.508081 7.170017 0.997667 -3.390047 23.092638 -2.290819 -3.140037 -0.867595 -1.700652 -1.420090 0.976597 -9.022440 26.394657 -20.615048 -17.295404 -76.245405 -45.876972 133.562500 -18.215034 6.861812 10.960315 1.630830 3.678439 11.834223 -2.322328 -58.423768 30.287086 -79.372460 -71.089119 104.375484 3.523923 -6.618327 34.912865 5.350386 -52.877220 -4.764304 -167.401996 66.654890 -157.541697 -1.509645 -2.407643 0.414530 -0.088864 -0.100746 -0.053397 -15.409460 -44.259681 9.070480 157.550894 68.877063 151.441514 -0.762895 -19.439074 -4.141983 -0.018165 -0.057874 -0.010917
54.544654 131.358884 38.301043 -176.232143 -31.776802 -4.833170 0.573510 7.555962 0.965723 0.020744 0.352332 0.047423 0.036494 0.616514 0.083065 0.485772 7.216444 1.002768 -3.382127 23.090547 -2.248250 -3.141008 -0.871011 -1.656334 -1.393103 0.890580 -8.986368 26.259059 -20.499656 -17.038326 -75.682618 -45.600601 133.337552 -17.911169 7.092727 11.443232 1.622723 3.523241 11.724887 -3.608012 -57.874738 30.609495 -76.545156 -71.974110 99.211684 3.937781 -5.902849 31.796383 5.377437 -52.759831 -4.765604 -167.075311 66.757256 -157.244173 -1.509111 -2.764721 0.411675 -0.088472 -0.155352 -0.053139 -15.298390 -44.335390 8.874104 157.569128 68.902274 151.510591 -0.745440 -19.636981 -4.075008 -0.007670 -0.064674 -0.004605
54.523187 131.349502 38.288912 -176.083652 -31.655037 -4.843049 0.613593 7.661747 0.931224 0.021845 0.363791 0.047103 0.038355 0.636175 0.082494 0.500058 7.326723 0.981910 -3.389097 23.017469 -2.156218 -3.168305 -0.959332 -1.554519 -1.465509 0.639029 -8.876007 26.039612 -20.436605 -16.766829 -75.080791 -45.301689 133.192462 -17.719273 7.304041 11.389872 1.538918 3.199743 11.687216 -4.756039 -57.391292 30.847532 -72.966074 -72.580312 93.223922 4.151882 -5.291633 28.412099 5.381858 -52.646838 -4.758614 -166.739163 66.867427 -156.942940 -1.514975 -3.111160 0.400673 -0.071123 -0.191776 -0.042702 -15.211012 -44.414501 8.693987 157.609807 68.930483 151.597540 -0.726903 -19.863213 -4.009078 0.002999 -0.056996 0.001808
54.504267 131.339110 38.275207 -175.932194 -31.519514 -4.860610 0.662595 7.774242 0.871896 0.023809 0.375446 0.045403 0.041805 0.656121 0.079477 0.530185 7.438788 0.934731 -3.394200 22.940062 -2.030214 -3.201252 -1.053153 -1.416349 -1.586885 0.362946 -8.713991 25.767836 -20.415221 -16.471766 -74.536518 -45.057762 133.102628 -17.589488 7.446814 10.874536 1.433182 2.854716 11.725970 -5.817118 -56.940403 31.041816 -68.822944 -72.867969 86.628566 4.264982 -4.777282 24.766325 5.370753 -52.537968 -4.744869 -166.378972 66.982442 -156.619743 -1.509868 -3.419796 0.380450 -0.054015 -0.217568 -0.032418 -15.146458 -44.498108 8.535376 157.664756 68.958543 151.696227 -0.712537 -20.104239 -3.947761 0.013999 -0.050067 0.008421
54.488705 131.328093 38.259187 -175.772151 -31.371726 -4.891583 0.676074 7.801083 0.822536 0.024309 0.378257 0.043162 0.042714 0.660921 0.075568 0.536016 7.467981 0.887350 -3.383006 22.946480 -1.922645 -3.213515 -1.047075 -1.302572 -1.676187 0.266878 -8.587967 25.495321 -20.411494 -16.164589 -74.153139 -44.929522 133.059708 -17.494868 7.535324 10.187586 1.387401 2.707460 11.773396 -6.805421 -56.509747 31.214048 -64.466567 -72.868451 79.778223 4.415476 -4.346473 20.928768 5.332972 -52.430246 -4.716546 -165.970317 67.099215 -156.250490 -1.495720 -3.681667 0.344613 -0.039541 -0.227260 -0.023723 -15.115297 -44.584289 8.403166 157.725927 68.985189 151.799118 -0.703368 -20.358778 -3.893277 0.025165 -0.043701 0.015133
